<!DOCTYPE svg PUBLIC "-//W3C//DTD SVG 1.1//EN" "http://www.w3.org/Graphics/SVG/1.1/DTD/svg11.dtd">
<!-- Uploaded to: SVG Repo, www.svgrepo.com, Transformed by: SVG Repo Mixer Tools -->
<svg fill="#222" width="800px" height="800px" viewBox="0 0 24 24" xmlns="http://www.w3.org/2000/svg" stroke="#222">
<g id="SVGRepo_bgCarrier" stroke-width="0"/>
<g id="SVGRepo_tracerCarrier" stroke-linecap="round" stroke-linejoin="round" stroke="#CCCCCC" stroke-width="0.336"/>
<g id="SVGRepo_iconCarrier">
<path d="M19,2H15a1,1,0,0,0-.707.293L12,4.586,9.707,2.293A1,1,0,0,0,9,2H5A3,3,0,0,0,2,5V19a3,3,0,0,0,3,3H19a3,3,0,0,0,3-3V5A3,3,0,0,0,19,2Zm1,17a1,1,0,0,1-1,1H5a1,1,0,0,1-1-1V5A1,1,0,0,1,5,4H8.586l2.707,2.707a1,1,0,0,0,1.414,0L15.414,4H19a1,1,0,0,1,1,1ZM16.707,9.293a1,1,0,0,1,0,1.414l-5,5a1,1,0,0,1-1.414,0l-2-2a1,1,0,0,1,1.414-1.414L11,13.586l4.293-4.293A1,1,0,0,1,16.707,9.293Z"/>
</g>
</svg>